<svg width="1024" height="1024" viewBox="0 0 1024 1024" fill="none" xmlns="http://www.w3.org/2000/svg">
  <defs>
    <linearGradient id="bg" x1="192" y1="176" x2="832" y2="848" gradientUnits="userSpaceOnUse">
      <stop stop-color="#F8FAFC"/>
      <stop offset="1" stop-color="#EEF2FF"/>
    </linearGradient>
  </defs>
  <rect width="1024" height="1024" rx="240" fill="#FFFFFF"/>
  <circle cx="512" cy="512" r="352" fill="url(#bg)"/>
  <circle cx="512" cy="512" r="351" stroke="#E2E8F0" stroke-width="2"/>
  <rect x="302" y="302" width="420" height="420" rx="96" fill="#FFFFFF" stroke="#CBD5E1" stroke-width="16"/>
  <rect x="362" y="362" width="92" height="92" rx="24" fill="#0F172A"/>
  <rect x="466" y="362" width="92" height="92" rx="24" fill="#94A3B8"/>
  <rect x="570" y="362" width="92" height="92" rx="24" fill="#94A3B8"/>
  <rect x="362" y="466" width="92" height="92" rx="24" fill="#94A3B8"/>
  <rect x="466" y="466" width="92" height="92" rx="24" fill="#7C3AED"/>
  <rect x="570" y="466" width="92" height="92" rx="24" fill="#94A3B8"/>
  <rect x="362" y="570" width="92" height="92" rx="24" fill="#94A3B8"/>
  <rect x="466" y="570" width="92" height="92" rx="24" fill="#94A3B8"/>
  <rect x="570" y="570" width="92" height="92" rx="24" fill="#0F172A"/>
  <path d="M699 282L712.717 319.283L750 333L712.717 346.717L699 384L685.283 346.717L648 333L685.283 319.283L699 282Z" fill="#F59E0B"/>
</svg>
