<svg width="1024" height="1024" viewBox="0 0 1024 1024" fill="none" xmlns="http://www.w3.org/2000/svg">
  <defs>
    <linearGradient id="bg" x1="210" y1="184" x2="828" y2="850" gradientUnits="userSpaceOnUse">
      <stop stop-color="#F8FAFC"/>
      <stop offset="1" stop-color="#EDE9FE"/>
    </linearGradient>
  </defs>
  <rect width="1024" height="1024" rx="240" fill="#FFFFFF"/>
  <circle cx="512" cy="512" r="352" fill="url(#bg)"/>
  <circle cx="512" cy="512" r="351" stroke="#E2E8F0" stroke-width="2"/>
  <circle cx="512" cy="378" r="88" fill="#FFFFFF" stroke="#CBD5E1" stroke-width="16"/>
  <circle cx="400" cy="590" r="88" fill="#FFFFFF" stroke="#CBD5E1" stroke-width="16"/>
  <circle cx="624" cy="590" r="88" fill="#FFFFFF" stroke="#CBD5E1" stroke-width="16"/>
  <path d="M512 465V512M488 488H536" stroke="#7C3AED" stroke-width="28" stroke-linecap="round"/>
  <path d="M512 465C530 465 551 448 551 421C551 394 531 375 512 375C493 375 473 394 473 421C473 448 494 465 512 465Z" fill="#0F172A" fill-opacity="0.08"/>
  <path d="M400 677C418 677 439 660 439 633C439 606 419 587 400 587C381 587 361 606 361 633C361 660 382 677 400 677Z" fill="#0F172A" fill-opacity="0.08"/>
  <path d="M624 677C642 677 663 660 663 633C663 606 643 587 624 587C605 587 585 606 585 633C585 660 606 677 624 677Z" fill="#0F172A" fill-opacity="0.08"/>
  <path d="M448 468L432 517" stroke="#94A3B8" stroke-width="18" stroke-linecap="round"/>
  <path d="M576 468L592 517" stroke="#94A3B8" stroke-width="18" stroke-linecap="round"/>
  <path d="M448 536H576" stroke="#94A3B8" stroke-width="18" stroke-linecap="round"/>
  <circle cx="512" cy="512" r="78" stroke="#7C3AED" stroke-width="20" stroke-dasharray="1 26" stroke-linecap="round"/>
</svg>
